<svg xmlns="http://www.w3.org/2000/svg">

<symbol id="logoU" viewport="0 0 500 500">
   <circle fill="black" stroke="black" stroke-width="3.00001" cx="248" cy="256" r="240"/>
   <path fill="white" stroke="black" stroke-width="3.00001" d="M250 15c106,0 183,49 183,159 0,117 -80,211 -179,211 -99,0 -179,-94 -179,-211 0,-112 65,-159 175,-159z"/>
   <path fill="black" stroke="black" stroke-width="3.00001" d="M140 219l0 -127c0,-11 2,-19 7,-24 5,-5 11,-8 19,-8 8,0 29,2 34,8 5,5 -7,13 -7,24l0 130c0,15 2,27 5,37 3,10 9,17 18,23 8,5 20,8 35,8 21,0 35,-6 44,-17 9,-11 13,-28 13,-50l0 -131c0,-11 -12,-19 -7,-24 5,-5 25,-8 33,-8 8,0 15,2 20,8 5,5 7,13 7,24l0 127c0,20 -2,38 -6,51 -4,14 -11,26 -22,37 -10,9 -21,15 -34,19 -13,4 -27,6 -44,6 -21,0 -38,-2 -53,-6 -14,-5 -26,-11 -36,-21 -9,-9 -16,-21 -20,-35 -4,-14 -6,-31 -6,-51z"/>
</symbol>

<symbol>
	<path d="M112,6H12C5.4,6,0,11.4,0,18s5.4,12,12,12h100c6.6,0,12-5.4,12-12S118.6,6,112,6z"/>
	<path d="M112,50H12C5.4,50,0,55.4,0,62c0,6.6,5.4,12,12,12h100c6.6,0,12-5.4,12-12C124,55.4,118.6,50,112,50z"/>
	<path d="M112,94H12c-6.6,0-12,5.4-12,12s5.4,12,12,12h100c6.6,0,12-5.4,12-12S118.6,94,112,94z"/>
</symbol>

</svg>
